<svg xmlns="http://www.w3.org/2000/svg" viewBox="0 0 1323.64 1970.45"><defs><style>*{--main-color: black}.cls-1,.cls-2{fill:none;stroke:var(--main-color);stroke-miterlimit:10;}.cls-1{stroke-width:13px;}.cls-2{stroke-width:5px;}.cls-3{fill:var(--main-color);}</style></defs><g id="Layer_2" data-name="Layer 2"><rect class="cls-1" x="6.5" y="6.5" width="1310.64" height="1957.45"/><rect class="cls-2" x="56.03" y="58.1" width="1211.57" height="1854.26"/></g><g id="Layer_4" data-name="Layer 4"><path class="cls-3" d="M132.1,153.08a15.07,15.07,0,0,1,4.22.08,9.13,9.13,0,0,1,4.89,2.42,8.8,8.8,0,0,1,2.38,5.12c0,.39.06.78.08,1.17l0,1a19,19,0,0,1-.22,2,17.3,17.3,0,0,1-3.1,7.39,12.79,12.79,0,0,1-3.31,3.09,7.89,7.89,0,0,1-1,.56c-.34.16-.66.34-1,.47a12,12,0,0,1-2.26.64,11,11,0,0,1-4.8-.2,12.23,12.23,0,0,1-4.12-2,13.52,13.52,0,0,1-3-3.11,14.84,14.84,0,0,1-1.93-3.7,17.31,17.31,0,0,1-.53-1.8c-.15-.58-.33-1.16-.43-1.74a32.44,32.44,0,0,1-.51-3.5l-.14-1.76v-1.75a32.58,32.58,0,0,1,4.84-16.89A22,22,0,0,1,134,131.5c1.23-.29,2.49-.6,3.73-.77a23.19,23.19,0,0,1,3.72-.14,26,26,0,0,1,7.23,1.26,36.71,36.71,0,0,1,12.08,7,57.94,57.94,0,0,1,9.09,9.8,74.25,74.25,0,0,1,6.86,11.21,70.1,70.1,0,0,1,7.11,25.35,86.61,86.61,0,0,1-1.81,26,120.78,120.78,0,0,1-8.21,24.47A147.38,147.38,0,0,1,161.13,258l-1.84,2.62-1.91,2.53-3.81,5.07c-2.66,3.41-5.13,6.42-7.51,9.68a140.25,140.25,0,0,0-12.56,20.16,96.66,96.66,0,0,0-4.6,10.67,72.55,72.55,0,0,0-2.94,11c-.14.91-.32,1.86-.43,2.73s-.19,1.72-.21,2.57a28.75,28.75,0,0,0,.22,5,18.44,18.44,0,0,0,3.25,8.46,19.12,19.12,0,0,0,7.05,5.65c3,1.45,6,2.14,8,1.82a9.35,9.35,0,0,0,5.81-3.48,9.24,9.24,0,0,0,2.47-6.35,8,8,0,0,0-2-5.54,7.79,7.79,0,0,0-5-2.09,10,10,0,1,1,1.51-20,11,11,0,0,1,1.75.29l.9.24a27.53,27.53,0,0,1,15.49,10.85,26.06,26.06,0,0,1,4.06,17.9,26.83,26.83,0,0,1-2.67,8.57,27.76,27.76,0,0,1-5.26,7,24.1,24.1,0,0,1-24.48,6.17,35.67,35.67,0,0,1-7.11-3.05,33.39,33.39,0,0,1-11.58-10.33,32.62,32.62,0,0,1-5.13-14.58,42.1,42.1,0,0,1-.13-7.35c.08-1.21.22-2.41.4-3.59s.42-2.25.63-3.37a85.81,85.81,0,0,1,3.81-12.85,111.43,111.43,0,0,1,5.53-11.92c2-3.84,4.31-7.51,6.68-11.09s4.89-7,7.51-10.38,5.44-6.65,7.91-9.7l3.75-4.75,1.87-2.37,1.78-2.41a137.83,137.83,0,0,0,12.21-20.46,107.67,107.67,0,0,0,8-22.24,77.65,77.65,0,0,0,2-23.18,61,61,0,0,0-5.85-22.16,58.41,58.41,0,0,0-13.48-18.43,28.22,28.22,0,0,0-9.15-5.51,16.23,16.23,0,0,0-9.7-.4A13.71,13.71,0,0,0,129,145.1a23,23,0,0,0-3.41,9.8,24.26,24.26,0,0,0-.17,2.68v1.35l.1,1.33a25,25,0,0,0,.36,2.62c.06.44.21.85.31,1.27a9.47,9.47,0,0,0,.33,1.17,6.67,6.67,0,0,0,2.17,3.13,4.26,4.26,0,0,0,1.38.72,3,3,0,0,0,1.33.06,3.55,3.55,0,0,0,.72-.2,6,6,0,0,0,.72-.36,4.35,4.35,0,0,0,1.18-1.12,9.52,9.52,0,0,0,1.6-4,10,10,0,0,0,.12-1.07V162c0-.12,0-.25,0-.37-.06-.45-.16-.45-.11-.43a1.8,1.8,0,0,0-.62-.2,7.41,7.41,0,0,0-1.95,0h0a4,4,0,1,1-.9-7.95Z" transform="translate(-80.68 -64.78)"/><path class="cls-3" d="M175.26,229.47a131.67,131.67,0,0,0-2.83,17.46,78.45,78.45,0,0,0,.21,17.21c.08.71.2,1.4.31,2.09.06.34.11.72.18,1l.2.88a18.59,18.59,0,0,0,1.19,3.43,21.28,21.28,0,0,0,9.91,10.28,15.74,15.74,0,0,0,6.47,1.65c4.39.09,8.9-1.79,11.32-4.94l.46-.58.38-.63a7.85,7.85,0,0,0,.68-1.28,10.65,10.65,0,0,0,.5-1.37,6.16,6.16,0,0,0,.25-.86c.09-.31.17-.63.24-.95a36.77,36.77,0,0,0,1-7.69c.14-5-1-10.31-3.17-12.34a8.06,8.06,0,0,0-1.72-1.33,4.87,4.87,0,0,0-1.63-.46,5,5,0,0,0-3.27,1.2l-.36.26a7.56,7.56,0,1,1-8.8-12.29l.48-.32,1.47-.89a10.42,10.42,0,0,1,1.56-.81c.54-.25,1.09-.49,1.64-.71l1.77-.54a18.3,18.3,0,0,1,7.52-.41,19.33,19.33,0,0,1,6.93,2.53,21.93,21.93,0,0,1,5.22,4.56,24.35,24.35,0,0,1,3.4,5.63c.21.5.38,1,.56,1.52l.27.76.19.69c.28.92.47,1.85.67,2.77a41.74,41.74,0,0,1,.58,10.87,50.07,50.07,0,0,1-1.87,10.32c-.11.42-.24.83-.38,1.25s-.24.79-.44,1.31a22.52,22.52,0,0,1-1.24,2.85,21.12,21.12,0,0,1-1.59,2.67c-.3.42-.59.84-.9,1.26l-1,1.16a24.62,24.62,0,0,1-9.89,6.68,26.49,26.49,0,0,1-22.44-1.71,31.85,31.85,0,0,1-14.19-16.19,29,29,0,0,1-1.53-5.28l-.24-1.36c-.07-.44-.1-.82-.15-1.24-.09-.81-.19-1.63-.24-2.44a87.41,87.41,0,0,1,.68-19.24,140.58,140.58,0,0,1,3.9-18.41,4,4,0,0,1,7.76,1.94Z" transform="translate(-80.68 -64.78)"/><path class="cls-3" d="M176.28,227a39,39,0,0,1-5.74,8.53,35.2,35.2,0,0,1-8,6.57c-.77.41-1.5.9-2.3,1.25l-2.4,1.08a35.81,35.81,0,0,1-5,1.53,32.62,32.62,0,0,1-10.57.61A36,36,0,0,1,132,243.81a26.08,26.08,0,0,1-9-6.61,28.16,28.16,0,0,1-5.43-9.7A34.09,34.09,0,0,1,116,216.81a43.8,43.8,0,0,1,1.47-10.33,51.18,51.18,0,0,1,3.59-9.6,42.54,42.54,0,0,1,2.57-4.54c.46-.75,1-1.47,1.51-2.19l.82-1.07c.3-.37.68-.77,1-1.15a19.1,19.1,0,0,1,5.11-4,16.9,16.9,0,0,1,6.73-2,16,16,0,0,1,7.11,1.16,17,17,0,0,1,5.79,3.91l1.15,1.25c.34.44.65.89,1,1.34a22.49,22.49,0,0,1,1.64,2.78c.43,1,.81,1.89,1.16,2.92.16.54.32,1.08.46,1.62l.3,1.66a21.73,21.73,0,0,1-2.24,12.57,26,26,0,0,1-7.88,9.25h0a6.57,6.57,0,0,1-7.77-10.6l.22-.15a13.16,13.16,0,0,0,4.06-4.4,9.15,9.15,0,0,0,1.22-5.12c0-.2-.06-.39-.08-.6s-.1-.38-.14-.58c-.13-.41-.31-.91-.47-1.35a9.43,9.43,0,0,0-.64-1.18l-.34-.53-.39-.45a4.5,4.5,0,0,0-3.47-1.67,6,6,0,0,0-4.12,2c-.17.18-.33.32-.52.53l-.6.73c-.39.5-.79,1-1.15,1.53a34,34,0,0,0-2,3.35,37.37,37.37,0,0,0-4.47,15.11,23.87,23.87,0,0,0,.79,7.38,18,18,0,0,0,3.2,6.28,16.19,16.19,0,0,0,5.48,4.32,26.64,26.64,0,0,0,7.3,2.26,23.55,23.55,0,0,0,7.63-.18,27,27,0,0,0,3.74-1l1.8-.74c.61-.24,1.16-.59,1.74-.88a26.34,26.34,0,0,0,6.25-4.73,30.37,30.37,0,0,0,4.67-6.44l.07-.12a4,4,0,0,1,7.09,3.7Z" transform="translate(-80.68 -64.78)"/><path class="cls-3" d="M130.37,123.1c-1.73,3.24-7.74,5.64-14.89,5.64s-13.17-2.4-14.9-5.64c1.71-3.25,7.74-5.65,14.9-5.65S128.66,119.85,130.37,123.1Z" transform="translate(-80.68 -64.78)"/><path class="cls-3" d="M131.22,114.15c-5,.45-11.87-2.69-17.7-8.52S104.57,93,105,88C111.45,94.41,122.33,105.21,131.22,114.15Z" transform="translate(-80.68 -64.78)"/><path class="cls-3" d="M178,116a7.72,7.72,0,0,0,0,1.94,1.66,1.66,0,0,0,.2.62,1.54,1.54,0,0,0,.43.12,2.3,2.3,0,0,1,.37,0h.5a8,8,0,0,0,1.06-.12,9.39,9.39,0,0,0,3.95-1.6,4.38,4.38,0,0,0,1.13-1.17,6.21,6.21,0,0,0,.36-.73,3.59,3.59,0,0,0,.19-.71,3.19,3.19,0,0,0-.05-1.34,4.43,4.43,0,0,0-.72-1.37,6.74,6.74,0,0,0-3.13-2.18,11.62,11.62,0,0,0-1.17-.33c-.43-.1-.83-.24-1.27-.31a25.21,25.21,0,0,0-2.63-.36l-1.33-.1h-1.34a26.59,26.59,0,0,0-2.68.17,23,23,0,0,0-9.8,3.41,13.68,13.68,0,0,0-5.69,7.38,16.42,16.42,0,0,0,.4,9.71,28.38,28.38,0,0,0,5.52,9.14,58.28,58.28,0,0,0,18.43,13.49,61,61,0,0,0,22.16,5.84,77.26,77.26,0,0,0,23.17-2,107.93,107.93,0,0,0,22.25-8,137,137,0,0,0,20.46-12.22l2.4-1.77,2.38-1.88,4.75-3.74c3.05-2.48,6.36-5.33,9.7-7.92s6.81-5.13,10.38-7.5,7.25-4.65,11.09-6.69a110.31,110.31,0,0,1,11.91-5.52,85,85,0,0,1,12.85-3.82c1.13-.2,2.2-.44,3.37-.62s2.39-.32,3.6-.4a42,42,0,0,1,7.34.12,32.79,32.79,0,0,1,14.59,5.14,33.36,33.36,0,0,1,10.33,11.57,35.67,35.67,0,0,1,3.05,7.11,25.34,25.34,0,0,1,1.07,8.59,24.73,24.73,0,0,1-7.24,15.89,27.81,27.81,0,0,1-7,5.26,26.69,26.69,0,0,1-8.57,2.68,26.11,26.11,0,0,1-17.89-4.07A27.49,27.49,0,0,1,326,132.27l-.22-.84a10,10,0,1,1,19.34-5.13,10.39,10.39,0,0,1,.31,1.81,7.76,7.76,0,0,0,2.08,5,8,8,0,0,0,5.55,2,10.14,10.14,0,0,0,3.31-.59,10.5,10.5,0,0,0,3-1.87,9.33,9.33,0,0,0,3.48-5.82c.32-2.06-.37-5.06-1.81-8a19.12,19.12,0,0,0-5.65-7,18.54,18.54,0,0,0-8.47-3.26,28.64,28.64,0,0,0-5-.22c-.86,0-1.71.11-2.57.21s-1.82.3-2.73.44a71,71,0,0,0-11,2.93A100.62,100.62,0,0,0,315,116.5a140.65,140.65,0,0,0-20.16,12.57c-3.26,2.37-6.27,4.85-9.69,7.5l-5.06,3.82-2.53,1.9L275,144.14a147.32,147.32,0,0,1-22.32,12.65A121.64,121.64,0,0,1,228.17,165a87,87,0,0,1-26,1.8,70.14,70.14,0,0,1-25.35-7.1,74.71,74.71,0,0,1-11.2-6.87,57.94,57.94,0,0,1-9.81-9.08,36.68,36.68,0,0,1-7-12.08,26.38,26.38,0,0,1-1.27-7.23,24.37,24.37,0,0,1,.15-3.72c.17-1.25.48-2.5.77-3.74a21.94,21.94,0,0,1,9.09-11.86A31,31,0,0,1,171,100.49a33.86,33.86,0,0,1,3.49-.2h1.76l1.75.14a32.58,32.58,0,0,1,3.51.5c.58.1,1.16.29,1.73.43a14.79,14.79,0,0,1,1.8.54,14.32,14.32,0,0,1,3.7,1.92,13.74,13.74,0,0,1,3.11,3,12.54,12.54,0,0,1,2,4.12,11.28,11.28,0,0,1,.2,4.8,11.78,11.78,0,0,1-.64,2.26c-.13.36-.31.68-.47,1a8.63,8.63,0,0,1-.56,1,12.45,12.45,0,0,1-3.1,3.3,17.26,17.26,0,0,1-7.38,3.1,19,19,0,0,1-2,.23h-1c-.39,0-.78,0-1.18-.08a8.74,8.74,0,0,1-5.11-2.38,9.1,9.1,0,0,1-2.42-4.88,15.55,15.55,0,0,1-.09-4.23,4,4,0,0,1,8,.84V116Z" transform="translate(-80.68 -64.78)"/><path class="cls-3" d="M244.47,150.5a142.38,142.38,0,0,1,18.42-3.9,88.66,88.66,0,0,1,19.24-.68c.81.05,1.62.16,2.44.25.42.05.8.08,1.24.15l1.36.23a28.71,28.71,0,0,1,5.27,1.53,31.66,31.66,0,0,1,9.3,5.66,32.14,32.14,0,0,1,6.9,8.53,26.52,26.52,0,0,1,1.71,22.45,24.76,24.76,0,0,1-6.68,9.89l-1.17,1q-.62.47-1.26.9a21.07,21.07,0,0,1-2.66,1.6,25.51,25.51,0,0,1-2.85,1.23c-.52.21-.89.31-1.32.45l-1.24.38A50.06,50.06,0,0,1,282.85,202a41.74,41.74,0,0,1-10.87-.58c-.93-.19-1.85-.39-2.77-.66l-.7-.2-.76-.26c-.5-.19-1-.36-1.51-.57a24.37,24.37,0,0,1-5.64-3.39,22.52,22.52,0,0,1-4.55-5.22,19.49,19.49,0,0,1-2.54-6.93,18.29,18.29,0,0,1,.42-7.52c.16-.6.34-1.19.53-1.78s.47-1.1.71-1.64a12.54,12.54,0,0,1,.81-1.55l.9-1.48a7.56,7.56,0,0,1,12.93,7.84c-.1.16-.2.32-.31.47l-.27.37a5,5,0,0,0-1.2,3.27,4.59,4.59,0,0,0,.46,1.63,7.75,7.75,0,0,0,1.33,1.72c2,2.15,7.34,3.32,12.34,3.18a36.87,36.87,0,0,0,7.69-1l.95-.23c.3-.09.67-.17.86-.25a10.55,10.55,0,0,0,1.36-.51,7.55,7.55,0,0,0,1.29-.68l.63-.38.57-.46c3.15-2.42,5-6.92,4.95-11.32a15.81,15.81,0,0,0-1.65-6.46,20.89,20.89,0,0,0-4.25-5.82,21.32,21.32,0,0,0-6-4.1,18.59,18.59,0,0,0-3.43-1.19l-.88-.2c-.31-.07-.69-.11-1-.17-.7-.11-1.39-.24-2.09-.31a78.52,78.52,0,0,0-17.22-.22,133.6,133.6,0,0,0-17.46,2.83h0a4,4,0,0,1-1.95-7.76Z" transform="translate(-80.68 -64.78)"/><path class="cls-3" d="M240.37,152.13a30.82,30.82,0,0,0,6.44-4.67,26.52,26.52,0,0,0,4.74-6.25c.28-.59.64-1.14.87-1.74l.74-1.8a26.07,26.07,0,0,0,1-3.74,23.55,23.55,0,0,0,.17-7.63,26.35,26.35,0,0,0-2.25-7.31,16.41,16.41,0,0,0-4.32-5.48,18,18,0,0,0-6.29-3.2,23.48,23.48,0,0,0-7.37-.78A37.16,37.16,0,0,0,219,114a33,33,0,0,0-3.35,2.06c-.54.36-1,.76-1.54,1.14l-.72.6c-.21.19-.35.36-.53.53a6.08,6.08,0,0,0-2.05,4.12,4.56,4.56,0,0,0,1.68,3.47,5.34,5.34,0,0,1,.44.39l.54.34a10.9,10.9,0,0,0,1.18.63c.43.16.93.35,1.35.48l.58.14.6.07a9.15,9.15,0,0,0,5.12-1.21,13.23,13.23,0,0,0,4.39-4.06A6.57,6.57,0,0,1,237.57,130a1.43,1.43,0,0,1-.14.2l0,0a26.24,26.24,0,0,1-9.25,7.88,21.76,21.76,0,0,1-12.57,2.23l-1.66-.3c-.54-.14-1.09-.29-1.62-.45a30.12,30.12,0,0,1-2.92-1.17,21.33,21.33,0,0,1-2.79-1.63c-.44-.32-.89-.64-1.33-1L204,134.68a16.78,16.78,0,0,1-3.91-5.79,16,16,0,0,1-1.16-7.11,16.89,16.89,0,0,1,1.94-6.72,19.17,19.17,0,0,1,4-5.11c.37-.34.78-.72,1.15-1l1.06-.82c.73-.52,1.45-1,2.19-1.52a46.58,46.58,0,0,1,4.54-2.57,50.55,50.55,0,0,1,9.61-3.58A43.79,43.79,0,0,1,233.77,99a34.1,34.1,0,0,1,10.69,1.56,28,28,0,0,1,9.71,5.43,26.24,26.24,0,0,1,6.6,9,35.75,35.75,0,0,1,2.76,10.22,32.55,32.55,0,0,1-.61,10.56,36.33,36.33,0,0,1-1.53,5l-1.08,2.4c-.36.8-.84,1.54-1.26,2.3a34.69,34.69,0,0,1-6.56,8,38.68,38.68,0,0,1-8.53,5.74,4,4,0,0,1-3.71-7.08Z" transform="translate(-80.68 -64.78)"/><path class="cls-3" d="M140.07,113.38c3.24-1.73,5.64-7.74,5.64-14.89s-2.4-13.17-5.64-14.9c-3.25,1.71-5.65,7.74-5.65,14.9S136.82,111.67,140.07,113.38Z" transform="translate(-80.68 -64.78)"/><path class="cls-3" d="M131.12,114.23c.45-5-2.69-11.87-8.52-17.7S109.93,87.58,105,88C111.38,94.46,122.18,105.34,131.12,114.23Z" transform="translate(-80.68 -64.78)"/><path class="cls-3" d="M170.07,1983.42a15.49,15.49,0,0,1,.09-4.22,9,9,0,0,1,2.42-4.88,8.76,8.76,0,0,1,5.11-2.39l1.18-.08,1,0a16.31,16.31,0,0,1,2,.23,17.28,17.28,0,0,1,7.39,3.09,12.65,12.65,0,0,1,3.1,3.31,8.63,8.63,0,0,1,.56,1,10.76,10.76,0,0,1,.47,1,11.78,11.78,0,0,1,.64,2.26,11.23,11.23,0,0,1-.2,4.79,12.49,12.49,0,0,1-2,4.13,13.74,13.74,0,0,1-3.11,3,14.63,14.63,0,0,1-3.7,1.92c-.69.27-1.2.36-1.8.54s-1.15.33-1.74.43a34.68,34.68,0,0,1-3.5.5l-1.75.14h-1.76a34.22,34.22,0,0,1-3.5-.2,31.17,31.17,0,0,1-13.38-4.64,22,22,0,0,1-9.09-11.86c-.29-1.24-.6-2.5-.77-3.74a24.42,24.42,0,0,1-.15-3.72,26.38,26.38,0,0,1,1.27-7.23,36.68,36.68,0,0,1,7-12.08,57.53,57.53,0,0,1,9.81-9.08,74.71,74.71,0,0,1,11.2-6.87,70.1,70.1,0,0,1,25.35-7.11,87.33,87.33,0,0,1,26,1.81,121.61,121.61,0,0,1,24.47,8.21A148.24,148.24,0,0,1,275,1954.39l2.62,1.84,2.53,1.91,5.06,3.81c3.42,2.66,6.42,5.14,9.68,7.51A140.34,140.34,0,0,0,315.05,1982a98.69,98.69,0,0,0,10.67,4.61,73.38,73.38,0,0,0,11,2.93c.9.14,1.86.32,2.73.43a24.5,24.5,0,0,0,2.57.21,26.82,26.82,0,0,0,5-.22,18.53,18.53,0,0,0,8.47-3.25,19.12,19.12,0,0,0,5.65-7c1.44-3,2.13-6,1.81-8a9.35,9.35,0,0,0-3.48-5.81,10.5,10.5,0,0,0-3-1.87,9.88,9.88,0,0,0-3.31-.59,8,8,0,0,0-5.55,2,7.82,7.82,0,0,0-2.09,5,10,10,0,1,1-19.95-1.51,9.24,9.24,0,0,1,.29-1.76l.24-.9a27.43,27.43,0,0,1,10.85-15.48,26,26,0,0,1,17.89-4.07,26.45,26.45,0,0,1,8.57,2.68,27.58,27.58,0,0,1,7,5.26,24.78,24.78,0,0,1,7.24,15.89,25.25,25.25,0,0,1-1.07,8.58,35.19,35.19,0,0,1-3.06,7.11,33.17,33.17,0,0,1-10.32,11.58,32.66,32.66,0,0,1-14.59,5.13,41.12,41.12,0,0,1-7.35.13c-1.2-.08-2.4-.22-3.59-.4s-2.24-.42-3.37-.63a83.86,83.86,0,0,1-12.85-3.81,110.37,110.37,0,0,1-11.91-5.53c-3.84-2-7.52-4.31-11.09-6.68s-7-4.88-10.38-7.51-6.65-5.44-9.7-7.91l-4.75-3.75L271.2,1965l-2.4-1.77A137,137,0,0,0,248.34,1951a107.35,107.35,0,0,0-22.25-8,77.26,77.26,0,0,0-23.17-2,60.78,60.78,0,0,0-22.16,5.84,58.45,58.45,0,0,0-18.44,13.48,28.57,28.57,0,0,0-5.51,9.15,16.41,16.41,0,0,0-.4,9.71,13.68,13.68,0,0,0,5.68,7.37,23,23,0,0,0,9.81,3.42,26.59,26.59,0,0,0,2.68.17h1.34l1.33-.11a23.08,23.08,0,0,0,2.63-.35c.44-.07.84-.22,1.26-.31a11.16,11.16,0,0,0,1.18-.33,6.79,6.79,0,0,0,3.13-2.18,4.78,4.78,0,0,0,.72-1.37,3.19,3.19,0,0,0,.05-1.34,3.5,3.5,0,0,0-.19-.72,6.9,6.9,0,0,0-.36-.72,4.38,4.38,0,0,0-1.13-1.17,9.4,9.4,0,0,0-3.95-1.61c-.36-.06-.72-.09-1.06-.12H179l-.37,0c-.45.07-.46.16-.44.11a2.12,2.12,0,0,0-.19.62,7.8,7.8,0,0,0,0,2v0a4,4,0,1,1-7.94.91Z" transform="translate(-80.68 -64.78)"/><path class="cls-3" d="M246.46,1940.27a131.9,131.9,0,0,0,17.46,2.82,78.54,78.54,0,0,0,17.22-.21c.7-.07,1.39-.2,2.09-.31l1-.17.89-.2a20.09,20.09,0,0,0,3.42-1.19,21.26,21.26,0,0,0,6-4.11,20.81,20.81,0,0,0,4.24-5.81,15.68,15.68,0,0,0,1.66-6.47c.08-4.39-1.8-8.9-4.95-11.31l-.57-.47-.63-.38a7.51,7.51,0,0,0-1.29-.67,10.55,10.55,0,0,0-1.36-.51,8.65,8.65,0,0,0-.86-.25c-.32-.09-.63-.17-.95-.24a37.53,37.53,0,0,0-7.69-1c-5-.14-10.32,1-12.34,3.18a7.71,7.71,0,0,0-1.33,1.71,4.64,4.64,0,0,0-.46,1.64,4.91,4.91,0,0,0,1.2,3.26l.26.37a7.56,7.56,0,0,1-12.29,8.8c-.11-.16-.23-.33-.32-.49l-.9-1.47a13.3,13.3,0,0,1-.81-1.55c-.24-.55-.48-1.1-.71-1.65s-.37-1.18-.53-1.77a18.29,18.29,0,0,1-.42-7.52,19.35,19.35,0,0,1,2.54-6.93,22.32,22.32,0,0,1,4.55-5.22,24.41,24.41,0,0,1,5.64-3.4c.5-.2,1-.38,1.51-.56l.76-.27.69-.19c.93-.27,1.85-.47,2.78-.67a41.74,41.74,0,0,1,10.87-.58,50,50,0,0,1,10.31,1.87c.42.11.84.24,1.25.38s.8.24,1.31.45a22.47,22.47,0,0,1,2.85,1.23,20.44,20.44,0,0,1,2.67,1.59c.42.3.85.6,1.26.91l1.17,1a24.62,24.62,0,0,1,6.68,9.89,26.49,26.49,0,0,1-1.71,22.44,31.92,31.92,0,0,1-16.2,14.19,29,29,0,0,1-5.27,1.54l-1.36.23c-.45.07-.83.1-1.24.15-.82.09-1.63.19-2.44.24a87.41,87.41,0,0,1-19.24-.68,139.11,139.11,0,0,1-18.42-3.9,4,4,0,0,1,1.94-7.76Z" transform="translate(-80.68 -64.78)"/><path class="cls-3" d="M244,1939.24a39.13,39.13,0,0,1,8.54,5.75,34.9,34.9,0,0,1,6.56,8c.42.77.9,1.5,1.26,2.3l1.08,2.4a36.88,36.88,0,0,1,1.53,5.06,32.55,32.55,0,0,1,.61,10.56,35.69,35.69,0,0,1-2.76,10.21,26.08,26.08,0,0,1-6.61,9,28.07,28.07,0,0,1-9.7,5.43,34.39,34.39,0,0,1-10.69,1.56,44.31,44.31,0,0,1-10.32-1.48,51.27,51.27,0,0,1-9.61-3.59,42.77,42.77,0,0,1-4.54-2.57c-.74-.46-1.46-1-2.19-1.51l-1.07-.82c-.36-.3-.77-.68-1.15-1a19.35,19.35,0,0,1-4-5.11,16.89,16.89,0,0,1-1.94-6.72,16,16,0,0,1,1.16-7.12,17,17,0,0,1,3.91-5.79l1.25-1.14c.43-.35.88-.66,1.33-1a21.33,21.33,0,0,1,2.79-1.63,29.93,29.93,0,0,1,2.91-1.17c.54-.16,1.08-.32,1.63-.46l1.66-.29a21.76,21.76,0,0,1,12.57,2.23,26.24,26.24,0,0,1,9.25,7.88h0a6.57,6.57,0,1,1-10.6,7.77l-.16-.22a13.16,13.16,0,0,0-4.4-4.06,9.2,9.2,0,0,0-5.11-1.22c-.2,0-.4.06-.6.08l-.58.14c-.42.13-.92.31-1.35.48a9.39,9.39,0,0,0-1.18.63l-.54.34c-.14.14-.29.26-.44.39a4.56,4.56,0,0,0-1.68,3.47,6.05,6.05,0,0,0,2.05,4.12c.18.17.32.34.53.53l.72.6c.5.38,1,.78,1.54,1.14a32.89,32.89,0,0,0,3.35,2,37.13,37.13,0,0,0,15.1,4.47,23.54,23.54,0,0,0,7.38-.79,18,18,0,0,0,6.29-3.2,16.21,16.21,0,0,0,4.32-5.48,26.52,26.52,0,0,0,2.25-7.3,23.55,23.55,0,0,0-.17-7.63,27.08,27.08,0,0,0-1-3.74l-.74-1.8c-.23-.6-.59-1.15-.87-1.74a26.58,26.58,0,0,0-4.74-6.25,30.82,30.82,0,0,0-6.44-4.67l-.12-.07a4,4,0,0,1,3.7-7.09Z" transform="translate(-80.68 -64.78)"/><path class="cls-3" d="M140.1,1985.15c3.24,1.73,5.64,7.74,5.64,14.89s-2.4,13.17-5.64,14.9c-3.25-1.71-5.65-7.74-5.65-14.9S136.85,1986.86,140.1,1985.15Z" transform="translate(-80.68 -64.78)"/><path class="cls-3" d="M131.15,1984.3c.45,5-2.69,11.87-8.52,17.7s-12.67,9-17.63,8.54C111.41,2004.07,122.21,1993.19,131.15,1984.3Z" transform="translate(-80.68 -64.78)"/><path class="cls-3" d="M133,1937.53a7.8,7.8,0,0,0,1.95,0,2.12,2.12,0,0,0,.62-.19c-.05,0,0,0,.11-.44,0-.12,0-.24,0-.36v-.5a10,10,0,0,0-.12-1.07,9.52,9.52,0,0,0-1.6-4,4.4,4.4,0,0,0-1.18-1.13,6,6,0,0,0-.72-.36,4.28,4.28,0,0,0-.72-.19,3,3,0,0,0-1.33.06,4.43,4.43,0,0,0-1.38.71,6.77,6.77,0,0,0-2.17,3.13,9.18,9.18,0,0,0-.33,1.18c-.1.42-.25.83-.31,1.26a25.58,25.58,0,0,0-.36,2.63l-.1,1.33V1941a24,24,0,0,0,.17,2.68,23.07,23.07,0,0,0,3.41,9.81,13.71,13.71,0,0,0,7.38,5.68,16.3,16.3,0,0,0,9.7-.4,28.22,28.22,0,0,0,9.15-5.51,58.33,58.33,0,0,0,13.48-18.44,61,61,0,0,0,5.85-22.16,77.58,77.58,0,0,0-2-23.17,108,108,0,0,0-8-22.25,137.83,137.83,0,0,0-12.21-20.46l-1.78-2.4-1.87-2.37-3.75-4.75c-2.47-3.06-5.32-6.36-7.91-9.71s-5.13-6.81-7.51-10.38-4.64-7.24-6.68-11.09a110.37,110.37,0,0,1-5.53-11.91,85.81,85.81,0,0,1-3.81-12.85c-.21-1.13-.45-2.2-.63-3.37s-.32-2.38-.4-3.59a42.08,42.08,0,0,1,.13-7.35,32.58,32.58,0,0,1,5.13-14.58,33.19,33.19,0,0,1,11.58-10.33,35.1,35.1,0,0,1,7.11-3,24,24,0,0,1,24.48,6.17,27.58,27.58,0,0,1,5.26,7,26.75,26.75,0,0,1,2.67,8.57,26,26,0,0,1-4.07,17.89,27.38,27.38,0,0,1-15.48,10.85l-.85.23a10,10,0,0,1-5.12-19.35,11.27,11.27,0,0,1,1.8-.3,7.8,7.8,0,0,0,5-2.09,8.06,8.06,0,0,0,2-5.55,9.37,9.37,0,0,0-2.47-6.34,9.35,9.35,0,0,0-5.81-3.48c-2.06-.32-5.06.37-8,1.82a19,19,0,0,0-7.05,5.64,18.53,18.53,0,0,0-3.25,8.47,28.71,28.71,0,0,0-.22,5c0,.85.11,1.71.21,2.56s.29,1.83.43,2.74a73.59,73.59,0,0,0,2.93,10.95,98.69,98.69,0,0,0,4.61,10.67,140.34,140.34,0,0,0,12.56,20.17c2.38,3.26,4.85,6.26,7.51,9.68l3.81,5.06,1.91,2.53,1.84,2.63a146.8,146.8,0,0,1,12.66,22.31,121,121,0,0,1,8.21,24.47,86.68,86.68,0,0,1,1.81,26,70.1,70.1,0,0,1-7.11,25.35,74.15,74.15,0,0,1-6.86,11.2,57.63,57.63,0,0,1-9.09,9.81,36.68,36.68,0,0,1-12.08,7,26,26,0,0,1-7.23,1.27,24.42,24.42,0,0,1-3.72-.15c-1.24-.17-2.5-.48-3.73-.77a22,22,0,0,1-11.87-9.09,31.11,31.11,0,0,1-4.63-13.38,31.6,31.6,0,0,1-.21-3.5v-1.75l.14-1.76a32.08,32.08,0,0,1,.51-3.5c.1-.59.28-1.16.43-1.74a16.62,16.62,0,0,1,.53-1.8,14.84,14.84,0,0,1,1.93-3.7,13.33,13.33,0,0,1,3-3.11,12.34,12.34,0,0,1,4.12-2,11.12,11.12,0,0,1,4.8-.19,11.27,11.27,0,0,1,2.26.63c.36.13.68.31,1,.47a8,8,0,0,1,1,.57,12.46,12.46,0,0,1,3.31,3.09,17.3,17.3,0,0,1,3.1,7.39,18.53,18.53,0,0,1,.22,2l0,1c0,.4,0,.78-.08,1.18a8.75,8.75,0,0,1-2.38,5.11,9.06,9.06,0,0,1-4.89,2.42,15.1,15.1,0,0,1-4.22.09,4,4,0,0,1,.84-8H133Z" transform="translate(-80.68 -64.78)"/><path class="cls-3" d="M167.5,1871.05a140.72,140.72,0,0,1-3.9-18.42,87.34,87.34,0,0,1-.68-19.23c.05-.82.15-1.63.24-2.45.05-.41.08-.79.15-1.24l.24-1.36a28.94,28.94,0,0,1,1.53-5.27,31.85,31.85,0,0,1,14.19-16.19,26.54,26.54,0,0,1,22.44-1.72,24.62,24.62,0,0,1,9.89,6.68l1,1.17c.31.41.6.84.9,1.26a20.44,20.44,0,0,1,1.59,2.67,21.12,21.12,0,0,1,1.23,2.85,12.85,12.85,0,0,1,.45,1.31c.14.41.27.83.38,1.25a50.1,50.1,0,0,1,1.87,10.31,41.82,41.82,0,0,1-.58,10.88c-.2.92-.39,1.84-.67,2.77l-.19.69-.27.76c-.18.51-.35,1-.56,1.51a24.41,24.41,0,0,1-3.4,5.64,21.9,21.9,0,0,1-5.22,4.55,19.35,19.35,0,0,1-6.93,2.54,18.3,18.3,0,0,1-7.52-.41q-.88-.25-1.77-.54l-1.65-.71a11.92,11.92,0,0,1-1.55-.81l-1.47-.9a7.56,7.56,0,1,1,7.84-12.92c.16.09.31.2.46.3l.38.27a4.92,4.92,0,0,0,3.27,1.2,4.65,4.65,0,0,0,1.63-.46,7.75,7.75,0,0,0,1.72-1.33c2.14-2,3.31-7.34,3.17-12.34a36.85,36.85,0,0,0-1-7.69c-.07-.32-.15-.63-.24-1a6.59,6.59,0,0,0-.25-.86,10.51,10.51,0,0,0-.5-1.36,7.94,7.94,0,0,0-.68-1.29l-.38-.63-.46-.57c-2.42-3.15-6.93-5-11.32-5a15.91,15.91,0,0,0-6.47,1.66,21.25,21.25,0,0,0-9.92,10.28,19,19,0,0,0-1.18,3.43l-.2.88c-.07.3-.12.68-.18,1-.11.7-.23,1.39-.31,2.09a78.54,78.54,0,0,0-.21,17.22,131.67,131.67,0,0,0,2.83,17.46h0a4,4,0,0,1-7.76,2Z" transform="translate(-80.68 -64.78)"/><path class="cls-3" d="M169.12,1875.15a30.37,30.37,0,0,0-4.67-6.44,26.38,26.38,0,0,0-6.25-4.74c-.58-.28-1.13-.64-1.74-.87l-1.8-.74a28.57,28.57,0,0,0-3.74-1,23.55,23.55,0,0,0-7.63-.17,26.54,26.54,0,0,0-7.3,2.26,16.28,16.28,0,0,0-5.48,4.31,18,18,0,0,0-3.2,6.29,23.84,23.84,0,0,0-.79,7.38,37.37,37.37,0,0,0,4.47,15.11,33.86,33.86,0,0,0,2,3.34c.36.54.76,1,1.15,1.54l.6.72c.19.22.35.35.52.54a6.08,6.08,0,0,0,4.12,2,4.57,4.57,0,0,0,3.47-1.67l.39-.45.34-.54a8.77,8.77,0,0,0,.64-1.18c.16-.43.34-.93.47-1.34,0-.2.09-.4.14-.59s.05-.4.08-.6a9.12,9.12,0,0,0-1.22-5.11,13.16,13.16,0,0,0-4.06-4.4A6.57,6.57,0,1,1,147,1878l.2.14,0,0a26,26,0,0,1,7.88,9.24,21.76,21.76,0,0,1,2.24,12.57l-.3,1.66c-.14.55-.3,1.09-.46,1.63-.35,1-.73,2-1.16,2.91a22.6,22.6,0,0,1-1.64,2.79c-.32.45-.63.9-1,1.33l-1.15,1.25a17,17,0,0,1-5.79,3.91,15.87,15.87,0,0,1-7.11,1.16,16.89,16.89,0,0,1-6.73-1.94,19.1,19.1,0,0,1-5.11-4c-.34-.38-.72-.78-1-1.15l-.82-1.07c-.52-.72-1-1.45-1.51-2.19a44.59,44.59,0,0,1-2.57-4.54,51.27,51.27,0,0,1-3.59-9.61,43.79,43.79,0,0,1-1.47-10.32,34.09,34.09,0,0,1,1.55-10.69,28.16,28.16,0,0,1,5.43-9.7,26.08,26.08,0,0,1,9-6.61,35.69,35.69,0,0,1,10.21-2.76,32.62,32.62,0,0,1,10.57.62,35.77,35.77,0,0,1,5,1.52l2.4,1.08c.8.36,1.53.84,2.3,1.26a35.16,35.16,0,0,1,8,6.56,39.09,39.09,0,0,1,5.74,8.54,4,4,0,0,1-7.09,3.71Z" transform="translate(-80.68 -64.78)"/><path class="cls-3" d="M130.37,1975.45c-1.73-3.24-7.74-5.64-14.89-5.64s-13.17,2.4-14.9,5.64c1.71,3.25,7.74,5.65,14.9,5.65S128.66,1978.7,130.37,1975.45Z" transform="translate(-80.68 -64.78)"/><path class="cls-3" d="M131.22,1984.4c-5-.45-11.87,2.69-17.7,8.52s-9,12.67-8.54,17.63C111.45,2004.14,122.33,1993.34,131.22,1984.4Z" transform="translate(-80.68 -64.78)"/><path class="cls-3" d="M1355.62,161a7.41,7.41,0,0,0-1.95,0,1.66,1.66,0,0,0-.62.2s0,0-.11.43c0,.12,0,.25,0,.37v.5a10,10,0,0,0,.12,1.07,9.52,9.52,0,0,0,1.6,4,4.21,4.21,0,0,0,1.18,1.12,5.36,5.36,0,0,0,.72.36,3.55,3.55,0,0,0,.72.2,3,3,0,0,0,1.33-.06,4.26,4.26,0,0,0,1.38-.72,6.74,6.74,0,0,0,2.17-3.13,9.47,9.47,0,0,0,.33-1.17c.1-.42.24-.83.31-1.27a25,25,0,0,0,.36-2.62l.1-1.33v-1.35c0-.89-.11-1.78-.17-2.68a23,23,0,0,0-3.41-9.8,13.71,13.71,0,0,0-7.38-5.68,16.26,16.26,0,0,0-9.71.4,28.28,28.28,0,0,0-9.14,5.51,58.59,58.59,0,0,0-13.49,18.43,61.18,61.18,0,0,0-5.84,22.16,77.65,77.65,0,0,0,2,23.18,107.09,107.09,0,0,0,8,22.24,136.14,136.14,0,0,0,12.21,20.46l1.77,2.41,1.88,2.37,3.75,4.75c2.47,3.05,5.32,6.36,7.91,9.7s5.13,6.81,7.51,10.38,4.64,7.25,6.68,11.09a111.37,111.37,0,0,1,5.52,11.92,84.68,84.68,0,0,1,3.82,12.85c.21,1.12.44,2.19.62,3.37s.33,2.38.4,3.59a41.13,41.13,0,0,1-.12,7.35,32.51,32.51,0,0,1-5.14,14.58,33.36,33.36,0,0,1-11.57,10.33,35.67,35.67,0,0,1-7.11,3.05,24.1,24.1,0,0,1-24.48-6.17,27.76,27.76,0,0,1-5.26-7,26.58,26.58,0,0,1-2.67-8.57,26.06,26.06,0,0,1,4.06-17.9A27.49,27.49,0,0,1,1339.34,309l.84-.22a10,10,0,1,1,5.13,19.34,10.23,10.23,0,0,1-1.81.31,7.77,7.77,0,0,0-5,2.09,8,8,0,0,0-2,5.54,10.41,10.41,0,0,0,.59,3.31,10.54,10.54,0,0,0,1.87,3,9.37,9.37,0,0,0,5.82,3.48c2.06.32,5.06-.37,8-1.82a19.08,19.08,0,0,0,7-5.65,18.34,18.34,0,0,0,3.26-8.46,28.75,28.75,0,0,0,.22-5c0-.85-.11-1.71-.21-2.57s-.3-1.82-.44-2.73a71.35,71.35,0,0,0-2.93-11,98.61,98.61,0,0,0-4.6-10.67,142,142,0,0,0-12.56-20.16c-2.38-3.26-4.86-6.27-7.51-9.68l-3.82-5.07-1.9-2.53-1.85-2.62a147.32,147.32,0,0,1-12.65-22.32,120.78,120.78,0,0,1-8.21-24.47,86.61,86.61,0,0,1-1.81-26,70.29,70.29,0,0,1,7.1-25.35,75.13,75.13,0,0,1,6.87-11.21,57.88,57.88,0,0,1,9.08-9.8,36.75,36.75,0,0,1,12.09-7,25.93,25.93,0,0,1,7.22-1.26,23.32,23.32,0,0,1,3.73.14c1.24.17,2.5.48,3.73.77a22,22,0,0,1,11.86,9.09,31.08,31.08,0,0,1,4.64,13.39,33.9,33.9,0,0,1,.21,3.5v1.75l-.14,1.76a30.09,30.09,0,0,1-.5,3.5c-.1.58-.29,1.16-.43,1.74a17.31,17.31,0,0,1-.53,1.8,14.84,14.84,0,0,1-1.93,3.7,13.73,13.73,0,0,1-3,3.11,12.33,12.33,0,0,1-4.12,2,11,11,0,0,1-4.8.2,12,12,0,0,1-2.26-.64c-.36-.13-.68-.31-1-.47a7.27,7.27,0,0,1-1-.56,12.79,12.79,0,0,1-3.31-3.09,17.3,17.3,0,0,1-3.1-7.39,19,19,0,0,1-.22-2l0-1c0-.39,0-.78.08-1.17a8.74,8.74,0,0,1,2.38-5.12,9.1,9.1,0,0,1,4.88-2.42,15.14,15.14,0,0,1,4.23-.08,4,4,0,1,1-.84,7.95h-.05Z" transform="translate(-80.68 -64.78)"/><path class="cls-3" d="M1321.11,227.51a142.23,142.23,0,0,1,3.9,18.41,88,88,0,0,1,.68,19.24c0,.81-.15,1.63-.25,2.44,0,.42-.08.8-.15,1.24l-.23,1.36a29,29,0,0,1-1.53,5.28,32,32,0,0,1-14.19,16.19,26.5,26.5,0,0,1-22.44,1.71,24.72,24.72,0,0,1-9.9-6.68l-1-1.16c-.31-.42-.6-.84-.9-1.26a20,20,0,0,1-1.59-2.67,22.52,22.52,0,0,1-1.24-2.85c-.21-.52-.31-.89-.45-1.31s-.26-.83-.38-1.25a50.06,50.06,0,0,1-1.86-10.32,41.74,41.74,0,0,1,.58-10.87c.2-.92.39-1.85.66-2.77l.2-.69.26-.76c.19-.51.36-1,.57-1.52a24,24,0,0,1,3.4-5.63,22.08,22.08,0,0,1,5.21-4.56,19.47,19.47,0,0,1,6.93-2.53,18.34,18.34,0,0,1,7.53.41l1.77.54c.55.22,1.1.46,1.64.71a10.93,10.93,0,0,1,1.56.81l1.47.89a7.56,7.56,0,1,1-7.84,12.93l-.47-.31-.37-.27a5,5,0,0,0-3.27-1.2,4.81,4.81,0,0,0-1.63.46,8.06,8.06,0,0,0-1.72,1.33c-2.15,2-3.31,7.34-3.18,12.34a36.79,36.79,0,0,0,1,7.69c.07.32.15.64.24.95a6.16,6.16,0,0,0,.25.86,9.34,9.34,0,0,0,.5,1.37,7.85,7.85,0,0,0,.68,1.28l.38.63.46.58c2.42,3.15,6.92,5,11.32,4.94a15.66,15.66,0,0,0,6.46-1.65,21.24,21.24,0,0,0,9.92-10.28,18.59,18.59,0,0,0,1.19-3.43l.2-.88c.07-.3.12-.68.18-1,.11-.69.23-1.38.31-2.09a78.45,78.45,0,0,0,.21-17.21,133.33,133.33,0,0,0-2.83-17.46h0a4,4,0,0,1,7.76-2Z" transform="translate(-80.68 -64.78)"/><path class="cls-3" d="M1319.48,223.41a31.08,31.08,0,0,0,4.67,6.44,26.75,26.75,0,0,0,6.25,4.73c.59.29,1.14.64,1.75.88l1.8.74a26.9,26.9,0,0,0,3.73,1,23.56,23.56,0,0,0,7.63.18,26.71,26.71,0,0,0,7.31-2.26,16.28,16.28,0,0,0,5.48-4.32,18,18,0,0,0,3.2-6.28,23.87,23.87,0,0,0,.79-7.38,37.37,37.37,0,0,0-4.47-15.11,34.1,34.1,0,0,0-2.06-3.35c-.36-.54-.75-1-1.14-1.53l-.6-.73c-.19-.21-.35-.35-.53-.53a6,6,0,0,0-4.11-2,4.53,4.53,0,0,0-3.48,1.67l-.38.45-.34.53a9.43,9.43,0,0,0-.64,1.18c-.16.44-.35.94-.48,1.35a5.45,5.45,0,0,1-.14.58,5.79,5.79,0,0,1-.07.6,9.22,9.22,0,0,0,1.21,5.12,13.36,13.36,0,0,0,4.06,4.4,6.57,6.57,0,1,1-7.32,10.91l-.2-.14,0,0a26,26,0,0,1-7.87-9.25,21.65,21.65,0,0,1-2.24-12.57l.3-1.66q.21-.81.45-1.62c.35-1,.74-2,1.17-2.92a22.49,22.49,0,0,1,1.64-2.78c.32-.45.63-.9,1-1.34l1.15-1.25a16.88,16.88,0,0,1,5.79-3.91,16,16,0,0,1,7.11-1.16,16.86,16.86,0,0,1,6.72,2,18.79,18.79,0,0,1,5.11,4c.35.38.72.78,1,1.15l.83,1.07c.52.72,1,1.44,1.51,2.19a44.35,44.35,0,0,1,2.57,4.54,50.46,50.46,0,0,1,3.58,9.6,43.8,43.8,0,0,1,1.48,10.33,33.81,33.81,0,0,1-1.56,10.69,28,28,0,0,1-5.43,9.7,26,26,0,0,1-9,6.61,36,36,0,0,1-10.22,2.75,32.55,32.55,0,0,1-10.56-.61,35,35,0,0,1-5-1.53l-2.4-1.08c-.8-.35-1.53-.84-2.3-1.25a35,35,0,0,1-8-6.57,39,39,0,0,1-5.74-8.53,4,4,0,0,1,7.08-3.71Z" transform="translate(-80.68 -64.78)"/><path class="cls-3" d="M1358.23,123.1c1.73,3.24,7.74,5.64,14.89,5.64s13.17-2.4,14.9-5.64c-1.71-3.25-7.74-5.65-14.9-5.65S1359.94,119.85,1358.23,123.1Z" transform="translate(-80.68 -64.78)"/><path class="cls-3" d="M1357.38,114.15c5,.45,11.87-2.69,17.7-8.52S1384,93,1383.62,88C1377.15,94.41,1366.27,105.21,1357.38,114.15Z" transform="translate(-80.68 -64.78)"/><path class="cls-3" d="M1318.56,115.1a15.14,15.14,0,0,1-.08,4.23,9.1,9.1,0,0,1-2.42,4.88,8.74,8.74,0,0,1-5.11,2.38c-.4,0-.79.06-1.18.08h-1a19,19,0,0,1-2-.23,17.3,17.3,0,0,1-7.39-3.1,12.58,12.58,0,0,1-3.09-3.3,8.63,8.63,0,0,1-.56-1c-.16-.35-.34-.67-.47-1a11.78,11.78,0,0,1-.64-2.26,11,11,0,0,1,.2-4.8,12.16,12.16,0,0,1,2-4.12,13.7,13.7,0,0,1,3.1-3,14.48,14.48,0,0,1,3.7-1.92,15.34,15.34,0,0,1,1.8-.54c.58-.14,1.16-.33,1.74-.43a32.23,32.23,0,0,1,3.51-.5l1.75-.14h1.75a33.89,33.89,0,0,1,3.5.2,31,31,0,0,1,13.39,4.64,22,22,0,0,1,9.09,11.86c.29,1.24.6,2.49.77,3.74a24.37,24.37,0,0,1,.15,3.72,26.38,26.38,0,0,1-1.27,7.23,36.71,36.71,0,0,1-7,12.08,57.88,57.88,0,0,1-9.8,9.08,74.71,74.71,0,0,1-11.2,6.87,70.19,70.19,0,0,1-25.36,7.1,86.94,86.94,0,0,1-26-1.8,121.43,121.43,0,0,1-24.47-8.22,147.32,147.32,0,0,1-22.32-12.65l-2.62-1.85-2.53-1.9-5.07-3.82c-3.41-2.65-6.42-5.13-9.68-7.5a140.65,140.65,0,0,0-20.16-12.57,100.62,100.62,0,0,0-10.67-4.6,71.35,71.35,0,0,0-11-2.93c-.91-.14-1.86-.33-2.73-.44s-1.72-.18-2.57-.21a28.75,28.75,0,0,0-5,.22,18.45,18.45,0,0,0-8.46,3.26,19.12,19.12,0,0,0-5.65,7c-1.44,3-2.14,6-1.82,8a9.37,9.37,0,0,0,3.48,5.82,10.68,10.68,0,0,0,3,1.87,10.14,10.14,0,0,0,3.31.59,7.92,7.92,0,0,0,5.54-2,7.77,7.77,0,0,0,2.09-5,10,10,0,0,1,20,1.51,11.34,11.34,0,0,1-.29,1.76l-.24.89a27.49,27.49,0,0,1-10.85,15.49,26.11,26.11,0,0,1-17.89,4.07,26.83,26.83,0,0,1-8.58-2.68,27.76,27.76,0,0,1-7-5.26,24.09,24.09,0,0,1-6.17-24.48,35.67,35.67,0,0,1,3.05-7.11,33.36,33.36,0,0,1,10.33-11.57,32.76,32.76,0,0,1,14.58-5.14,42.08,42.08,0,0,1,7.35-.12c1.21.08,2.41.22,3.59.4s2.25.42,3.37.62a84.68,84.68,0,0,1,12.85,3.82,110.47,110.47,0,0,1,11.92,5.52c3.84,2,7.51,4.31,11.09,6.69s7,4.88,10.38,7.5,6.65,5.44,9.7,7.92l4.75,3.74,2.37,1.88,2.41,1.77a137,137,0,0,0,20.46,12.22,107.64,107.64,0,0,0,22.24,8,77.32,77.32,0,0,0,23.18,2,61,61,0,0,0,22.16-5.84,58.28,58.28,0,0,0,18.43-13.49,28.38,28.38,0,0,0,5.52-9.14,16.42,16.42,0,0,0,.4-9.71,13.77,13.77,0,0,0-5.69-7.38,23,23,0,0,0-9.8-3.41c-.9-.06-1.79-.2-2.68-.17h-1.35l-1.33.1a25.39,25.39,0,0,0-2.62.36c-.44.07-.84.21-1.27.31a11.62,11.62,0,0,0-1.17.33,6.69,6.69,0,0,0-3.13,2.18,4.43,4.43,0,0,0-.72,1.37,3.19,3.19,0,0,0-.06,1.34,4.53,4.53,0,0,0,.2.71,6.21,6.21,0,0,0,.36.73,4.33,4.33,0,0,0,1.12,1.17,9.39,9.39,0,0,0,4,1.6,8.15,8.15,0,0,0,1.07.12h.5a2.3,2.3,0,0,1,.37,0c.45-.07.45-.17.43-.12a1.66,1.66,0,0,0,.2-.62,7.33,7.33,0,0,0,0-1.94v0a4,4,0,1,1,8-.91Z" transform="translate(-80.68 -64.78)"/><path class="cls-3" d="M1242.17,158.26a133.45,133.45,0,0,0-17.45-2.83,78.52,78.52,0,0,0-17.22.22c-.71.07-1.4.2-2.09.31-.34.06-.72.1-1,.17l-.88.2a18.59,18.59,0,0,0-3.43,1.19,21.18,21.18,0,0,0-6,4.1,20.89,20.89,0,0,0-4.25,5.82,15.81,15.81,0,0,0-1.65,6.46c-.09,4.4,1.8,8.9,4.94,11.32l.58.46.63.38a7.85,7.85,0,0,0,1.28.68,10.69,10.69,0,0,0,1.37.51c.19.08.56.16.86.25l1,.23a36.79,36.79,0,0,0,7.69,1c5,.14,10.31-1,12.34-3.18a8.06,8.06,0,0,0,1.33-1.72,4.81,4.81,0,0,0,.46-1.63,5,5,0,0,0-1.2-3.27l-.26-.36a7.56,7.56,0,1,1,12.29-8.8c.11.15.22.32.32.48l.89,1.48a10.3,10.3,0,0,1,.81,1.55c.25.54.49,1.09.72,1.64s.36,1.18.53,1.78a18.12,18.12,0,0,1,.41,7.52,19.47,19.47,0,0,1-2.53,6.93,22.52,22.52,0,0,1-4.55,5.22,24.37,24.37,0,0,1-5.64,3.39c-.5.21-1,.38-1.52.57l-.76.26-.69.2c-.92.27-1.85.47-2.77.66a41.74,41.74,0,0,1-10.87.58,50.06,50.06,0,0,1-10.32-1.86l-1.25-.38c-.42-.14-.79-.24-1.31-.45a24,24,0,0,1-2.85-1.23,20.38,20.38,0,0,1-2.66-1.6c-.43-.29-.85-.59-1.27-.9l-1.16-1a24.76,24.76,0,0,1-6.68-9.89,26.52,26.52,0,0,1,1.71-22.45,31.94,31.94,0,0,1,6.9-8.53,31.61,31.61,0,0,1,9.29-5.66,29,29,0,0,1,5.28-1.53l1.36-.23c.44-.07.82-.1,1.24-.15.81-.09,1.63-.2,2.44-.25a88.66,88.66,0,0,1,19.24.68,142.23,142.23,0,0,1,18.41,3.9,4,4,0,0,1-1.94,7.76Z" transform="translate(-80.68 -64.78)"/><path class="cls-3" d="M1244.65,159.28a38.68,38.68,0,0,1-8.53-5.74,35,35,0,0,1-6.57-8c-.41-.76-.9-1.5-1.25-2.3l-1.08-2.4a35,35,0,0,1-1.53-5,32.55,32.55,0,0,1-.61-10.56,36.06,36.06,0,0,1,2.75-10.22,26.14,26.14,0,0,1,6.61-9,28,28,0,0,1,9.71-5.43A34,34,0,0,1,1254.84,99a43.79,43.79,0,0,1,10.32,1.48,50.46,50.46,0,0,1,9.6,3.58,44.35,44.35,0,0,1,4.54,2.57c.75.47,1.47,1,2.19,1.52l1.07.82c.37.3.77.68,1.15,1a19,19,0,0,1,4,5.11,16.9,16.9,0,0,1,2,6.72,16,16,0,0,1-1.16,7.11,16.78,16.78,0,0,1-3.91,5.79l-1.25,1.15c-.44.34-.89.66-1.34,1a21.23,21.23,0,0,1-2.78,1.63,31.18,31.18,0,0,1-2.92,1.17l-1.62.45-1.66.3a21.73,21.73,0,0,1-12.57-2.23,26.07,26.07,0,0,1-9.25-7.88v0a6.57,6.57,0,0,1,10.6-7.77l.15.23a13.36,13.36,0,0,0,4.4,4.06,9.14,9.14,0,0,0,5.12,1.21l.6-.07.58-.14c.41-.13.91-.32,1.35-.48a10.9,10.9,0,0,0,1.18-.63l.53-.34q.22-.21.45-.39a4.52,4.52,0,0,0,1.67-3.47,6,6,0,0,0-2-4.12c-.18-.17-.32-.34-.53-.53l-.73-.6c-.5-.38-1-.78-1.53-1.14a33,33,0,0,0-3.35-2.06,37.2,37.2,0,0,0-15.11-4.46,23.48,23.48,0,0,0-7.37.78,17.92,17.92,0,0,0-6.29,3.2,16.28,16.28,0,0,0-4.32,5.48,26.35,26.35,0,0,0-2.25,7.31,23.28,23.28,0,0,0,.17,7.63,26.07,26.07,0,0,0,1,3.74l.73,1.8c.24.6.59,1.15.88,1.74a26.52,26.52,0,0,0,4.74,6.25,30.75,30.75,0,0,0,6.43,4.67l.12.06a4,4,0,0,1-3.7,7.09Z" transform="translate(-80.68 -64.78)"/><path class="cls-3" d="M1348.54,113.38c-3.24-1.73-5.64-7.74-5.64-14.89s2.4-13.17,5.64-14.9c3.25,1.71,5.65,7.74,5.65,14.9S1351.79,111.67,1348.54,113.38Z" transform="translate(-80.68 -64.78)"/><path class="cls-3" d="M1357.49,114.23c-.45-5,2.69-11.87,8.52-17.7s12.67-9,17.63-8.54C1377.23,94.46,1366.43,105.34,1357.49,114.23Z" transform="translate(-80.68 -64.78)"/><path class="cls-3" d="M1310.58,1982.53a7.41,7.41,0,0,0,0-2,1.8,1.8,0,0,0-.2-.62s0,0-.43-.11l-.37,0h-.5c-.35,0-.7.06-1.07.12a9.3,9.3,0,0,0-3.94,1.61,4.38,4.38,0,0,0-1.13,1.17,6.9,6.9,0,0,0-.36.72,3.5,3.5,0,0,0-.19.72,3.19,3.19,0,0,0,0,1.34,4.54,4.54,0,0,0,.72,1.37,6.74,6.74,0,0,0,3.13,2.18,11.62,11.62,0,0,0,1.17.33c.43.09.83.24,1.27.31a22.9,22.9,0,0,0,2.62.35l1.34.11H1314c.89,0,1.78-.11,2.68-.17a22.91,22.91,0,0,0,9.8-3.42,13.7,13.7,0,0,0,5.69-7.37,16.41,16.41,0,0,0-.4-9.71,28.42,28.42,0,0,0-5.52-9.15,58.41,58.41,0,0,0-18.43-13.48,60.78,60.78,0,0,0-22.16-5.84,77.26,77.26,0,0,0-23.17,2,107.14,107.14,0,0,0-22.25,8,137,137,0,0,0-20.46,12.22l-2.4,1.77-2.38,1.87-4.75,3.75c-3,2.47-6.36,5.33-9.7,7.91s-6.81,5.13-10.38,7.51-7.25,4.64-11.09,6.68a110.37,110.37,0,0,1-11.91,5.53,83.86,83.86,0,0,1-12.85,3.81c-1.13.21-2.2.45-3.38.63s-2.38.32-3.59.4a41,41,0,0,1-7.34-.13,32.61,32.61,0,0,1-14.59-5.13,33.3,33.3,0,0,1-10.33-11.58,35.18,35.18,0,0,1-3-7.11,25,25,0,0,1-1.07-8.58,24.68,24.68,0,0,1,7.24-15.89,27.7,27.7,0,0,1,7-5.26,26.58,26.58,0,0,1,8.58-2.68,26,26,0,0,1,17.89,4.07,27.47,27.47,0,0,1,10.85,15.48l.22.85a10,10,0,0,1-19.34,5.13,10.55,10.55,0,0,1-.31-1.81,7.77,7.77,0,0,0-2.09-5,8,8,0,0,0-5.54-2,9.88,9.88,0,0,0-3.31.59,10.68,10.68,0,0,0-3,1.87,9.29,9.29,0,0,0-3.47,5.81c-.33,2.07.37,5.07,1.81,8a19.12,19.12,0,0,0,5.65,7,18.48,18.48,0,0,0,8.47,3.25,26.82,26.82,0,0,0,5,.22,25,25,0,0,0,2.57-.21c.87-.11,1.82-.29,2.73-.43a73.71,73.71,0,0,0,11-2.93,98.69,98.69,0,0,0,10.67-4.61,139.7,139.7,0,0,0,20.16-12.56c3.26-2.37,6.27-4.85,9.69-7.51l5.06-3.81,2.53-1.91,2.62-1.84a148.24,148.24,0,0,1,22.32-12.66,121.61,121.61,0,0,1,24.47-8.21,87.31,87.31,0,0,1,26-1.81,70.16,70.16,0,0,1,25.35,7.11,74.71,74.71,0,0,1,11.2,6.87,57.53,57.53,0,0,1,9.81,9.08,36.68,36.68,0,0,1,7,12.08,26.38,26.38,0,0,1,1.27,7.23,24.42,24.42,0,0,1-.15,3.72c-.17,1.24-.48,2.5-.77,3.74a22.06,22.06,0,0,1-9.09,11.86,31.16,31.16,0,0,1-13.39,4.64,33.86,33.86,0,0,1-3.49.2h-1.76l-1.75-.14a35.29,35.29,0,0,1-3.51-.5c-.58-.1-1.16-.29-1.74-.43s-1.11-.27-1.8-.54a14.8,14.8,0,0,1-3.7-1.92,13.91,13.91,0,0,1-3.1-3,12.12,12.12,0,0,1-2-4.13,11.23,11.23,0,0,1-.2-4.79,11.78,11.78,0,0,1,.64-2.26,10.76,10.76,0,0,1,.47-1,8.63,8.63,0,0,1,.56-1,12.65,12.65,0,0,1,3.1-3.31,17.24,17.24,0,0,1,7.38-3.09,16.7,16.7,0,0,1,2-.23l1,0,1.18.08a8.76,8.76,0,0,1,5.11,2.39,9.1,9.1,0,0,1,2.42,4.88,15.49,15.49,0,0,1,.09,4.22,4,4,0,0,1-8-.83v-.06Z" transform="translate(-80.68 -64.78)"/><path class="cls-3" d="M1244.11,1948a139.45,139.45,0,0,1-18.42,3.9,87.41,87.41,0,0,1-19.24.68c-.81,0-1.63-.15-2.44-.24-.42,0-.8-.08-1.24-.15l-1.36-.23a28.74,28.74,0,0,1-5.27-1.54,31.81,31.81,0,0,1-16.2-14.19,26.49,26.49,0,0,1-1.71-22.44,24.62,24.62,0,0,1,6.68-9.89l1.16-1,1.27-.91a21,21,0,0,1,2.66-1.59,23.1,23.1,0,0,1,2.85-1.23c.52-.21.89-.31,1.31-.45s.83-.27,1.25-.38a50.07,50.07,0,0,1,10.32-1.87,41.74,41.74,0,0,1,10.87.58c.93.2,1.85.4,2.77.67l.7.19.76.27c.5.18,1,.36,1.51.56a24.41,24.41,0,0,1,5.64,3.4,22.32,22.32,0,0,1,4.55,5.22,19.33,19.33,0,0,1,2.53,6.93,18.12,18.12,0,0,1-.41,7.52c-.17.59-.34,1.19-.53,1.77s-.47,1.1-.71,1.65a12,12,0,0,1-.82,1.55l-.89,1.47a7.56,7.56,0,0,1-12.93-7.83c.1-.16.2-.32.31-.47l.27-.38a5,5,0,0,0,1.2-3.26,4.86,4.86,0,0,0-.46-1.64,8,8,0,0,0-1.33-1.71c-2-2.15-7.34-3.32-12.34-3.18a37.53,37.53,0,0,0-7.69,1c-.32.07-.63.15-1,.24a8.65,8.65,0,0,0-.86.25,11.28,11.28,0,0,0-1.37.51,7.8,7.8,0,0,0-1.28.67l-.63.38-.58.47c-3.14,2.41-5,6.92-4.94,11.31a15.86,15.86,0,0,0,1.65,6.47,20.84,20.84,0,0,0,4.25,5.81,21.35,21.35,0,0,0,6,4.11,20.19,20.19,0,0,0,3.43,1.19l.88.2,1,.17c.69.11,1.39.24,2.09.31a78.53,78.53,0,0,0,17.22.21,132.17,132.17,0,0,0,17.46-2.82h0a4,4,0,0,1,1.95,7.76Z" transform="translate(-80.68 -64.78)"/><path class="cls-3" d="M1248.21,1946.4a30.56,30.56,0,0,0-6.44,4.67,26.31,26.31,0,0,0-4.74,6.25c-.28.59-.64,1.14-.88,1.74l-.73,1.8a25.73,25.73,0,0,0-1,3.74,23.27,23.27,0,0,0-.17,7.63,26.18,26.18,0,0,0,2.25,7.3,16.21,16.21,0,0,0,4.32,5.48,17.92,17.92,0,0,0,6.29,3.2,23.48,23.48,0,0,0,7.37.79,37.17,37.17,0,0,0,15.11-4.47,32.89,32.89,0,0,0,3.35-2c.54-.36,1-.76,1.54-1.14l.72-.6c.21-.19.35-.36.53-.53a6,6,0,0,0,2-4.12,4.52,4.52,0,0,0-1.67-3.47c-.15-.13-.3-.25-.44-.39l-.54-.34a9.39,9.39,0,0,0-1.18-.63c-.44-.17-.93-.35-1.35-.48l-.58-.14c-.2,0-.4,0-.6-.08a9.25,9.25,0,0,0-5.12,1.22,13.25,13.25,0,0,0-4.4,4.06,6.56,6.56,0,1,1-10.9-7.32l.14-.21,0,0a26.24,26.24,0,0,1,9.25-7.88,21.74,21.74,0,0,1,12.57-2.23l1.66.29c.54.14,1.08.3,1.62.46a30.12,30.12,0,0,1,2.92,1.17,21.23,21.23,0,0,1,2.78,1.63c.45.32.9.63,1.34,1l1.25,1.14a17,17,0,0,1,3.91,5.79,16,16,0,0,1,1.16,7.12,17.06,17.06,0,0,1-1.94,6.72,19.17,19.17,0,0,1-4,5.11c-.38.34-.78.72-1.15,1l-1.07.82c-.72.52-1.44,1-2.18,1.51a42.77,42.77,0,0,1-4.54,2.57,51.27,51.27,0,0,1-9.61,3.59,44.31,44.31,0,0,1-10.32,1.48,34.39,34.39,0,0,1-10.69-1.56,28,28,0,0,1-9.71-5.43,26.21,26.21,0,0,1-6.61-9,36,36,0,0,1-2.75-10.21,32.55,32.55,0,0,1,.61-10.56,36.88,36.88,0,0,1,1.53-5.06l1.08-2.4c.35-.8.84-1.53,1.26-2.3a34.64,34.64,0,0,1,6.56-8,39.07,39.07,0,0,1,8.53-5.75,4,4,0,0,1,3.71,7.09Z" transform="translate(-80.68 -64.78)"/><path class="cls-3" d="M1348.51,1985.15c-3.24,1.73-5.64,7.74-5.64,14.89s2.4,13.17,5.64,14.9c3.25-1.71,5.65-7.74,5.65-14.9S1351.76,1986.86,1348.51,1985.15Z" transform="translate(-80.68 -64.78)"/><path class="cls-3" d="M1357.46,1984.3c-.45,5,2.69,11.87,8.52,17.7s12.67,9,17.63,8.54C1377.2,2004.07,1366.4,1993.19,1357.46,1984.3Z" transform="translate(-80.68 -64.78)"/><path class="cls-3" d="M1356.51,1945.48a15.17,15.17,0,0,1-4.23-.09,9,9,0,0,1-4.88-2.42,8.69,8.69,0,0,1-2.38-5.11c0-.39-.06-.78-.08-1.18l0-1a18.53,18.53,0,0,1,.22-2,17.3,17.3,0,0,1,3.1-7.39,12.46,12.46,0,0,1,3.31-3.09,7.36,7.36,0,0,1,1-.57c.34-.16.66-.34,1-.47a12,12,0,0,1,2.26-.63,11.12,11.12,0,0,1,4.8.19,12.54,12.54,0,0,1,4.12,2,13.53,13.53,0,0,1,3,3.11,14.84,14.84,0,0,1,1.93,3.7,16.62,16.62,0,0,1,.53,1.8c.14.58.33,1.15.43,1.74a29.79,29.79,0,0,1,.5,3.5l.14,1.76v1.75a34.23,34.23,0,0,1-.21,3.5,31,31,0,0,1-4.64,13.38,21.89,21.89,0,0,1-11.86,9.09c-1.23.29-2.49.6-3.73.77a24.55,24.55,0,0,1-3.73.15,25.94,25.94,0,0,1-7.22-1.27,36.73,36.73,0,0,1-12.09-7,57.56,57.56,0,0,1-9.08-9.81,75,75,0,0,1-6.87-11.2,70.29,70.29,0,0,1-7.1-25.35,86.68,86.68,0,0,1,1.81-26,121,121,0,0,1,8.21-24.47,147.32,147.32,0,0,1,12.65-22.32l1.85-2.62,1.9-2.53,3.82-5.06c2.66-3.42,5.13-6.42,7.51-9.68a142.13,142.13,0,0,0,12.56-20.17,98.61,98.61,0,0,0,4.6-10.67,71,71,0,0,0,2.93-11c.14-.9.33-1.86.44-2.73s.18-1.71.21-2.56a28.71,28.71,0,0,0-.22-5,18.53,18.53,0,0,0-3.25-8.47,19,19,0,0,0-7-5.64c-3-1.45-6-2.14-8-1.82a9.4,9.4,0,0,0-5.82,3.48,10.41,10.41,0,0,0-1.87,3,10.3,10.3,0,0,0-.59,3.3,8,8,0,0,0,2,5.55,7.77,7.77,0,0,0,5,2.09,10,10,0,1,1-1.51,20,9.14,9.14,0,0,1-1.75-.29l-.9-.24a27.4,27.4,0,0,1-15.49-10.85,26,26,0,0,1-4.06-17.89,26.51,26.51,0,0,1,2.67-8.57,27.58,27.58,0,0,1,5.26-7,24,24,0,0,1,24.48-6.17,35.1,35.1,0,0,1,7.11,3,33.16,33.16,0,0,1,11.57,10.33A32.47,32.47,0,0,1,1376,1767a41.11,41.11,0,0,1,.12,7.35c-.07,1.21-.22,2.4-.4,3.59s-.41,2.24-.62,3.37a84.68,84.68,0,0,1-3.82,12.85,110.31,110.31,0,0,1-5.52,11.91c-2,3.85-4.31,7.52-6.68,11.09s-4.89,7-7.51,10.38-5.44,6.65-7.91,9.71l-3.75,4.75-1.88,2.37-1.77,2.4a136.14,136.14,0,0,0-12.21,20.46,107.38,107.38,0,0,0-8,22.25,77.58,77.58,0,0,0-2,23.17,61.18,61.18,0,0,0,5.84,22.16,58.52,58.52,0,0,0,13.49,18.44,28.28,28.28,0,0,0,9.14,5.51,16.34,16.34,0,0,0,9.71.4,13.71,13.71,0,0,0,7.38-5.68,23.07,23.07,0,0,0,3.41-9.81,26.59,26.59,0,0,0,.17-2.68v-1.34l-.1-1.33a25.58,25.58,0,0,0-.36-2.63c-.07-.43-.21-.84-.31-1.26a8.56,8.56,0,0,0-.33-1.17,6.83,6.83,0,0,0-2.17-3.14,4.43,4.43,0,0,0-1.38-.71,3,3,0,0,0-1.33-.06,4.28,4.28,0,0,0-.72.19,5.36,5.36,0,0,0-.72.36,4.26,4.26,0,0,0-1.18,1.13,9.52,9.52,0,0,0-1.6,4,10,10,0,0,0-.12,1.07v.5c0,.12,0,.24,0,.36.06.45.16.46.11.44a1.93,1.93,0,0,0,.62.19,7.35,7.35,0,0,0,1.95,0h0a4,4,0,0,1,.9,8Z" transform="translate(-80.68 -64.78)"/><path class="cls-3" d="M1313.35,1869.09a133.33,133.33,0,0,0,2.83-17.46,78.54,78.54,0,0,0-.21-17.22c-.08-.7-.2-1.39-.31-2.09-.06-.33-.11-.71-.18-1l-.2-.88a18.33,18.33,0,0,0-1.19-3.43,21.13,21.13,0,0,0-9.92-10.28,15.67,15.67,0,0,0-6.46-1.66c-4.4-.08-8.9,1.8-11.32,5l-.46.57-.38.63a7.94,7.94,0,0,0-.68,1.29,9.22,9.22,0,0,0-.5,1.36,6.59,6.59,0,0,0-.25.86c-.09.32-.17.63-.24,1a36.87,36.87,0,0,0-1,7.69c-.13,5,1,10.32,3.18,12.34a7.75,7.75,0,0,0,1.72,1.33,4.59,4.59,0,0,0,1.63.46,4.93,4.93,0,0,0,3.27-1.2l.36-.26a7.56,7.56,0,1,1,8.8,12.3,4.9,4.9,0,0,1-.48.31l-1.47.9a12.06,12.06,0,0,1-1.56.81l-1.64.71q-.89.29-1.77.54a18.34,18.34,0,0,1-7.53.41,19.49,19.49,0,0,1-6.93-2.54,22,22,0,0,1-5.21-4.55,24.07,24.07,0,0,1-3.4-5.64c-.21-.5-.38-1-.57-1.51l-.26-.76-.2-.69c-.27-.93-.46-1.85-.66-2.77a41.82,41.82,0,0,1-.58-10.88,50.09,50.09,0,0,1,1.86-10.31c.12-.42.25-.84.38-1.25s.24-.8.45-1.31a22.52,22.52,0,0,1,1.24-2.85,19.38,19.38,0,0,1,1.59-2.67c.3-.42.59-.85.9-1.26l1-1.17a24.72,24.72,0,0,1,9.9-6.68,26.55,26.55,0,0,1,22.44,1.72,32,32,0,0,1,14.19,16.19,28.94,28.94,0,0,1,1.53,5.27l.23,1.36c.07.45.1.83.15,1.24.1.82.2,1.63.25,2.45a88,88,0,0,1-.68,19.23,142.38,142.38,0,0,1-3.9,18.42,4,4,0,0,1-7.76-1.94Z" transform="translate(-80.68 -64.78)"/><path class="cls-3" d="M1312.33,1871.57a39.09,39.09,0,0,1,5.74-8.54,35,35,0,0,1,8-6.56c.77-.42,1.5-.9,2.3-1.26l2.4-1.08a35.37,35.37,0,0,1,5-1.52,32.56,32.56,0,0,1,10.56-.62,35.66,35.66,0,0,1,10.22,2.76,26,26,0,0,1,9,6.61,28,28,0,0,1,5.43,9.7,33.81,33.81,0,0,1,1.56,10.69,43.79,43.79,0,0,1-1.48,10.32,50.55,50.55,0,0,1-3.58,9.61,46.58,46.58,0,0,1-2.57,4.54c-.46.74-1,1.47-1.51,2.19l-.83,1.07c-.3.37-.67.77-1,1.15a18.79,18.79,0,0,1-5.11,4,16.8,16.8,0,0,1-6.72,1.94,15.87,15.87,0,0,1-7.11-1.16,16.88,16.88,0,0,1-5.79-3.91l-1.15-1.25c-.34-.43-.65-.88-1-1.33a22.6,22.6,0,0,1-1.64-2.79c-.43-1-.82-1.88-1.17-2.91-.16-.54-.31-1.08-.45-1.63l-.3-1.66a21.68,21.68,0,0,1,2.24-12.57,26.1,26.1,0,0,1,7.87-9.24h0a6.57,6.57,0,0,1,7.77,10.59l-.23.16a13.36,13.36,0,0,0-4.06,4.4,9.19,9.19,0,0,0-1.21,5.11c0,.2.06.4.07.6a5.63,5.63,0,0,1,.14.59c.13.41.32.91.48,1.34a8.77,8.77,0,0,0,.64,1.18l.34.54a5.63,5.63,0,0,1,.38.45,4.6,4.6,0,0,0,3.48,1.67,6.06,6.06,0,0,0,4.11-2c.18-.19.34-.32.53-.54l.6-.72c.39-.5.78-1,1.14-1.54a32.13,32.13,0,0,0,2.06-3.34,37.37,37.37,0,0,0,4.47-15.11,23.84,23.84,0,0,0-.79-7.38,18,18,0,0,0-3.2-6.29,16.38,16.38,0,0,0-5.48-4.31,26.71,26.71,0,0,0-7.31-2.26,23.56,23.56,0,0,0-7.63.17,28.43,28.43,0,0,0-3.73,1l-1.8.74c-.61.23-1.16.59-1.75.87a26.79,26.79,0,0,0-6.25,4.74,31.08,31.08,0,0,0-4.67,6.44l-.06.12a4,4,0,0,1-7.09-3.7Z" transform="translate(-80.68 -64.78)"/><path class="cls-3" d="M1358.23,1975.45c1.73-3.24,7.74-5.64,14.89-5.64s13.17,2.4,14.9,5.64c-1.71,3.25-7.74,5.65-14.9,5.65S1359.94,1978.7,1358.23,1975.45Z" transform="translate(-80.68 -64.78)"/><path class="cls-3" d="M1357.38,1984.4c5-.45,11.87,2.69,17.7,8.52s9,12.67,8.54,17.63C1377.15,2004.14,1366.27,1993.34,1357.38,1984.4Z" transform="translate(-80.68 -64.78)"/></g></svg>